<!--?xml version="1.0" encoding="utf-8"?-->
<!-- Generator: Adobe Illustrator 18.0.0, SVG Export Plug-In . SVG Version: 6.00 Build 0)  -->

<svg version="1.1" id="_x32_" xmlns="http://www.w3.org/2000/svg" xmlns:xlink="http://www.w3.org/1999/xlink" x="0px" y="0px" viewBox="0 0 512 512" style="width: 256px; height: 256px; opacity: 1;" xml:space="preserve">
<style type="text/css">
	.st0{fill:#4B4B4B;}
</style>
<g>
	<path class="st0" d="M417.167,178.745L297.079,58.653c-14.42-14.418-33.674-22.36-54.212-22.36
		c-20.539,0-39.792,7.942-54.213,22.36L47.249,200.058c-62.999,63.005-62.999,165.516,0,228.517
		c30.392,30.392,70.97,47.132,114.256,47.132s83.864-16.74,114.256-47.132L417.167,287.17
		c21.512-21.508,30.869-41.277,28.608-60.429C443.981,211.537,435.158,196.732,417.167,178.745z M387.978,257.978L246.574,399.382
		c-22.687,22.689-52.898,35.18-85.07,35.18c-32.169,0-62.379-12.492-85.066-35.18c-46.906-46.906-46.906-123.226,0-170.132
		L217.842,87.846c6.674-6.672,15.562-10.346,25.024-10.346c9.462,0,18.35,3.674,25.024,10.346l120.088,120.088
		c13.822,13.824,16.458,20.75,16.8,23.646C405.246,235.543,401.128,244.834,387.978,257.978z" style="fill: rgb(45, 66, 67);"></path>
	<path class="st0" d="M162.123,391.507c-17.692-0.004-34.301-6.871-46.429-19.339l-14.764,14.426
		c16.318,16.318,38.051,25.307,61.193,25.311c23.132,0,44.861-8.986,61.185-24.971l-14.424-14.766
		C196.41,384.64,179.805,391.507,162.123,391.507z" style="fill: rgb(45, 66, 67);"></path>
	<path class="st0" d="M425.3,65.094c-26.834,0-52.68,10.455-70.916,28.348l29.19,29.528c10.406-10.404,26.113-16.619,42.014-16.619
		c19.755,0,39.478,9.251,57.05,26.757l29.36-29.02C479.769,71.856,447.063,65.094,425.3,65.094z" style="fill: rgb(45, 66, 67);"></path>
	<path class="st0" d="M283.315,166.676c-6.928,0-13.422,2.681-18.286,7.544l-36.912,36.916c-10.084,10.084-10.084,26.488,0,36.572
		c4.864,4.866,11.358,7.543,18.286,7.543c6.928,0,13.422-2.677,18.286-7.543l36.912-36.912c10.082-10.08,10.082-26.488,0-36.575
		C296.737,169.357,290.243,166.676,283.315,166.676z" style="fill: rgb(45, 66, 67);"></path>
</g>
</svg>
